G04*
G04 #@! TF.GenerationSoftware,Altium Limited,Altium Designer,25.8.1 (18)*
G04*
G04 Layer_Color=65535*
%FSLAX44Y44*%
%MOMM*%
G71*
G04*
G04 #@! TF.SameCoordinates,5DA74081-E4BE-40B8-AF76-FA1F03DB232E*
G04*
G04*
G04 #@! TF.FilePolarity,Positive*
G04*
G01*
G75*
%ADD10C,0.1500*%
%ADD11C,0.2500*%
%ADD12C,0.2000*%
%ADD13C,0.2540*%
%ADD14C,0.3000*%
%ADD15C,0.1270*%
D10*
X771490Y38100D02*
G03*
X771490Y38100I-26000J0D01*
G01*
D11*
X715240D02*
G03*
X715240Y38100I-1250J0D01*
G01*
D12*
X716010Y111000D02*
G03*
X716010Y111000I-1000J0D01*
G01*
D13*
X629920Y76200D02*
X768350D01*
X629920Y97790D02*
X768350D01*
Y76200D02*
Y97790D01*
X629920Y76200D02*
Y97790D01*
X120750Y150D02*
X920750D01*
X120750Y1200150D02*
X920750D01*
Y150D02*
Y1200150D01*
X120750Y150D02*
Y1200150D01*
X855351Y44450D02*
Y71108D01*
X842022Y57779D02*
X868680D01*
X847090Y673100D02*
Y699758D01*
X619143Y442904D02*
Y429575D01*
X625807Y422910D01*
X652466D01*
X659130Y429575D01*
Y442904D01*
X652466Y449568D01*
X625807D01*
X619143Y442904D01*
Y462897D02*
X652466D01*
X659130Y469562D01*
Y482891D01*
X652466Y489555D01*
X619143D01*
Y502884D02*
Y529542D01*
Y516213D01*
X659130D01*
Y542871D02*
X619143D01*
Y562865D01*
X625807Y569529D01*
X639137D01*
X645801Y562865D01*
Y542871D01*
X619143Y582858D02*
X652466D01*
X659130Y589523D01*
Y602852D01*
X652466Y609516D01*
X619143D01*
Y622845D02*
Y649503D01*
Y636174D01*
X659130D01*
Y702820D02*
Y716149D01*
Y709484D01*
X619143D01*
X625807Y702820D01*
Y736142D02*
X619143Y742806D01*
Y756136D01*
X625807Y762800D01*
X632472D01*
X639137Y756136D01*
X645801Y762800D01*
X652466D01*
X659130Y756136D01*
Y742806D01*
X652466Y736142D01*
X645801D01*
X639137Y742806D01*
X632472Y736142D01*
X625807D01*
X639137Y742806D02*
Y756136D01*
X619143Y776129D02*
X645801D01*
X659130Y789458D01*
X645801Y802787D01*
X619143D01*
X758190Y306070D02*
X768347D01*
X753110Y198120D02*
Y208277D01*
X758188Y213355D01*
X763267Y208277D01*
Y198120D01*
Y205737D01*
X753110D01*
X778502Y210816D02*
X775963Y213355D01*
X770884D01*
X768345Y210816D01*
Y200659D01*
X770884Y198120D01*
X775963D01*
X778502Y200659D01*
X754380Y248920D02*
Y259077D01*
X759458Y264155D01*
X764537Y259077D01*
Y248920D01*
Y256537D01*
X754380D01*
X779772Y261616D02*
X777233Y264155D01*
X772154D01*
X769615Y261616D01*
Y251459D01*
X772154Y248920D01*
X777233D01*
X779772Y251459D01*
X759460Y151128D02*
X769617D01*
X764538Y156207D02*
Y146050D01*
X500718Y96508D02*
X494054Y89844D01*
Y76515D01*
X500718Y69850D01*
X507383D01*
X514047Y76515D01*
Y89844D01*
X520712Y96508D01*
X527377D01*
X534041Y89844D01*
Y76515D01*
X527377Y69850D01*
X500718Y116502D02*
X507383D01*
Y109837D01*
Y123166D01*
Y116502D01*
X527377D01*
X534041Y123166D01*
Y163153D02*
Y149824D01*
X527377Y143160D01*
X514047D01*
X507383Y149824D01*
Y163153D01*
X514047Y169818D01*
X520712D01*
Y143160D01*
X547370Y183147D02*
X507383D01*
Y203140D01*
X514047Y209805D01*
X527377D01*
X534041Y203140D01*
Y183147D01*
X514047Y223134D02*
Y249792D01*
X494054Y289779D02*
X534041D01*
Y269785D01*
X527377Y263121D01*
X514047D01*
X507383Y269785D01*
Y289779D01*
X534041Y309772D02*
Y323101D01*
X527377Y329766D01*
X514047D01*
X507383Y323101D01*
Y309772D01*
X514047Y303108D01*
X527377D01*
X534041Y309772D01*
X507383Y343095D02*
X527377D01*
X534041Y349759D01*
X527377Y356424D01*
X534041Y363088D01*
X527377Y369753D01*
X507383D01*
X534041Y383082D02*
X507383D01*
Y403076D01*
X514047Y409740D01*
X534041D01*
X500718Y469721D02*
X507383D01*
Y463056D01*
Y476385D01*
Y469721D01*
X527377D01*
X534041Y476385D01*
X507383Y496379D02*
X534041D01*
X520712D01*
X514047Y503043D01*
X507383Y509708D01*
Y516372D01*
Y543030D02*
Y556359D01*
X514047Y563024D01*
X534041D01*
Y543030D01*
X527377Y536366D01*
X520712Y543030D01*
Y563024D01*
X534041Y576353D02*
X507383D01*
Y596346D01*
X514047Y603011D01*
X534041D01*
Y616340D02*
Y636334D01*
X527377Y642998D01*
X520712Y636334D01*
Y623004D01*
X514047Y616340D01*
X507383Y623004D01*
Y642998D01*
X534041Y662991D02*
X500718D01*
X514047D01*
Y656327D01*
Y669656D01*
Y662991D01*
X500718D01*
X494054Y669656D01*
X534041Y696314D02*
Y709643D01*
X527377Y716308D01*
X514047D01*
X507383Y709643D01*
Y696314D01*
X514047Y689650D01*
X527377D01*
X534041Y696314D01*
X507383Y729637D02*
X534041D01*
X520712D01*
X514047Y736301D01*
X507383Y742966D01*
Y749630D01*
X534041Y769624D02*
X507383D01*
Y776288D01*
X514047Y782953D01*
X534041D01*
X514047D01*
X507383Y789617D01*
X514047Y796282D01*
X534041D01*
Y829604D02*
Y816275D01*
X527377Y809611D01*
X514047D01*
X507383Y816275D01*
Y829604D01*
X514047Y836269D01*
X520712D01*
Y809611D01*
X507383Y849598D02*
X534041D01*
X520712D01*
X514047Y856262D01*
X507383Y862927D01*
Y869591D01*
X703211Y364358D02*
Y349123D01*
X710828D01*
X713368Y351662D01*
Y361819D01*
X710828Y364358D01*
X703211D01*
X718446Y349123D02*
X723524D01*
X720985D01*
Y364358D01*
X718446Y361819D01*
D14*
X0Y901700D02*
X2540Y899160D01*
Y900000D02*
X598170D01*
X600000Y0D02*
Y1200150D01*
D15*
X703460Y118350D02*
Y137650D01*
Y319550D02*
Y338850D01*
Y118350D02*
X737760D01*
Y338850D01*
X703460D02*
X737760D01*
M02*
